<?xml version="1.0" encoding="utf-8"?>
<!-- Generator: Adobe Illustrator 24.0.2, SVG Export Plug-In . SVG Version: 6.00 Build 0)  -->
<svg version="1.1" id="Capa_1" xmlns="http://www.w3.org/2000/svg" xmlns:xlink="http://www.w3.org/1999/xlink" x="0px" y="0px"
	 viewBox="0 0 557.2 507.3" style="enable-background:new 0 0 557.2 507.3;" xml:space="preserve">
<style type="text/css">
	.st0{fill:#1D1D1B;}
	.st1{fill:#F3CC23;}
</style>
<g>
	<path class="st0" d="M162.4,208.6h7.2c4.2,0,6.8,2.5,6.8,6.1v0.1c0,4.1-3.2,6.2-7.1,6.2h-3v5.3h-3.9V208.6z M169.4,217.5
		c1.9,0,3.1-1.2,3.1-2.7l0,0c0-1.7-1.2-2.7-3.2-2.7h-3v5.4C166.3,217.5,169.4,217.5,169.4,217.5z"/>
	<path class="st0" d="M182.2,208.6h8.1c2.2,0,4,0.6,5.1,1.8c1,1,1.5,2.4,1.5,4v0.1c0,2.9-1.5,4.6-3.8,5.5l4.3,6.3h-4.5l-3.8-5.6H186
		v5.6h-3.8V208.6z M190,217.2c1.9,0,3-1,3-2.5v-0.1c0-1.7-1.2-2.5-3.1-2.5H186v5.1H190z"/>
	<path class="st0" d="M202.7,208.6H216v3.5h-9.5v3.6h8.3v3.5h-8.3v3.6h9.7v3.5h-13.5V208.6z"/>
	<path class="st0" d="M220.2,217.5L220.2,217.5c0-5.1,3.8-9.2,9.2-9.2c3.3,0,5.3,1.1,7,2.7l-2.5,2.9c-1.4-1.2-2.7-2-4.5-2
		c-3,0-5.1,2.5-5.1,5.5v0.1c0,3,2.1,5.5,5.1,5.5c2,0,3.3-0.8,4.6-2.1l2.5,2.5c-1.8,1.9-3.8,3.2-7.2,3.2
		C224.1,226.6,220.2,222.6,220.2,217.5z"/>
	<path class="st0" d="M241.2,208.6h3.9v17.7h-3.9V208.6z"/>
	<path class="st0" d="M249.7,223.7l2.3-2.7c1.6,1.3,3.3,2.1,5.3,2.1c1.6,0,2.5-0.6,2.5-1.7v-0.1c0-1-0.6-1.5-3.6-2.2
		c-3.6-0.9-5.9-1.9-5.9-5.4l0,0c0-3.2,2.6-5.3,6.2-5.3c2.6,0,4.8,0.8,6.6,2.2l-2,2.9c-1.6-1.1-3.1-1.7-4.6-1.7s-2.3,0.7-2.3,1.5v0.1
		c0,1.2,0.8,1.5,3.8,2.3c3.6,0.9,5.6,2.2,5.6,5.3v0.1c0,3.5-2.7,5.5-6.5,5.5C254.5,226.5,251.8,225.6,249.7,223.7z"/>
	<path class="st0" d="M268.6,208.6h3.9v17.7h-3.9V208.6z"/>
	<path class="st0" d="M301.1,208.6h3.6l8.3,10.9v-10.9h3.8v17.7h-3.3l-8.6-11.2v11.2h-3.8V208.6z"/>
	<path class="st1" d="M291.9,209.6c-1.4-0.8-3.1-1.3-5-1.3s-3.6,0.5-5,1.3l2.2,2.5l0.3,0.4c0.7-0.4,1.5-0.6,2.4-0.6
		c0.9,0,1.7,0.2,2.4,0.6l0.3-0.4L291.9,209.6z"/>
	<path class="st0" d="M292.8,210.2l-2.6,2.9c1.2,1,2,2.6,2,4.3v0.1c0,3-2.2,5.5-5.3,5.5s-5.3-2.5-5.3-5.5v-0.1
		c0-1.7,0.7-3.3,1.9-4.3l-2.5-2.8c-2.2,1.7-3.5,4.3-3.5,7.2v0.1c0,5,3.9,9.1,9.4,9.1c5.4,0,9.4-4.1,9.4-9.1v-0.2
		C296.3,214.5,294.9,211.9,292.8,210.2z"/>
</g>
</svg>
